# xmcd
#
# Track frame offsets:
#	150
#	11502
#	23745
#	38492
#	49743
#	66189
#	76960
#	90910
#	108862
#	118596
#
# Disc length: 1749 seconds
#
# Revision: 1
# Processed by: cddbd v1.5.2PL0 Copyright (c) Steve Scherf et al.
# Submitted via: audiograbber 1.83.01
#
DISCID=6806d30a
DTITLE=Vern Gosdin - Late and great The Voice
DYEAR=2009
DGENRE=Country
TTITLE0=The ride
TTITLE1=Lips speak up
TTITLE2=Where do we take it from here
TTITLE3=Thank you mama
TTITLE4=After losing you
TTITLE5=Biggest little arms
TTITLE6=Two broken hearts
TTITLE7=Not back to where I've been
TTITLE8=Yard sale
TTITLE9=To feel whay I once felt
EXTD=
EXTT0=
EXTT1=
EXTT2=
EXTT3=
EXTT4=
EXTT5=
EXTT6=
EXTT7=
EXTT8=
EXTT9=
PLAYORDER=
